<?xml version="1.0" standalone="no"?>
<!DOCTYPE svg PUBLIC "-//W3C//DTD SVG 20010904//EN"
 "http://www.w3.org/TR/2001/REC-SVG-20010904/DTD/svg10.dtd">
<svg version="1.0" xmlns="http://www.w3.org/2000/svg"
 width="1008.000000pt" height="1008.000000pt" viewBox="0 0 1008.000000 1008.000000"
 preserveAspectRatio="xMidYMid meet">
<metadata>
Created by potrace 1.11, written by Peter Selinger 2001-2013
</metadata>
<g transform="translate(0.000000,1008.000000) scale(0.100000,-0.100000)"
fill="#000000" stroke="none">
<path d="M5109 10075 c-2 -2 -76 -6 -164 -8 -88 -3 -160 -6 -160 -6 0 -1 -29
-4 -65 -6 -70 -5 -110 -9 -180 -19 -25 -4 -58 -9 -75 -11 -16 -2 -30 -4 -30
-5 0 -1 -11 -3 -25 -6 -21 -3 -121 -24 -193 -39 -10 -2 -27 -7 -37 -10 -10 -3
-27 -8 -37 -10 -46 -9 -179 -47 -209 -60 -19 -8 -34 -12 -34 -10 0 2 -20 -4
-45 -15 -25 -11 -47 -19 -50 -20 -3 0 -21 -7 -41 -15 -20 -8 -40 -15 -45 -15
-5 0 -42 -15 -81 -33 -40 -18 -89 -39 -108 -47 -19 -7 -46 -21 -60 -30 -14
-10 -36 -21 -50 -25 -14 -4 -30 -12 -37 -17 -7 -5 -43 -26 -80 -45 -37 -19
-75 -41 -83 -48 -8 -6 -22 -15 -30 -19 -26 -12 -136 -84 -200 -131 -15 -11
-40 -29 -56 -40 -27 -18 -113 -84 -124 -95 -3 -3 -32 -27 -65 -54 -57 -47
-306 -293 -369 -365 -17 -18 -52 -61 -78 -95 -27 -33 -55 -68 -62 -77 -7 -9
-33 -45 -57 -80 -24 -35 -46 -66 -49 -69 -3 -3 -26 -37 -52 -76 -104 -159
-233 -405 -312 -596 -32 -79 -130 -359 -141 -405 -3 -10 -14 -54 -25 -98 -25
-96 -29 -111 -36 -150 -3 -16 -10 -48 -15 -70 -6 -22 -12 -53 -14 -70 -2 -16
-6 -46 -10 -65 -24 -127 -24 -108 -30 -2158 l-6 -1874 1783 5 c981 3 1789 6
1796 6 6 1 18 1 25 1 59 -3 346 16 407 25 14 3 48 7 75 10 42 4 337 67 370 78
6 2 24 7 40 11 73 19 259 81 365 123 129 50 460 212 460 225 0 4 6 8 14 8 7 0
42 19 77 42 35 23 96 62 134 87 83 54 91 61 113 84 9 9 20 17 25 17 9 0 92 63
117 89 8 9 33 29 55 45 77 57 362 352 464 479 121 153 256 349 288 417 3 8 9
17 12 20 36 30 260 515 277 599 3 14 8 29 12 35 4 6 7 13 7 16 1 3 11 34 23
70 23 70 90 330 97 377 5 37 16 100 21 127 3 11 7 41 10 66 2 25 7 56 9 69 31
173 26 667 -9 896 -17 111 -29 181 -31 195 -10 50 -47 203 -60 250 -9 30 -18
62 -20 70 -5 24 -64 203 -72 220 -3 8 -7 17 -8 20 -1 3 -9 22 -18 44 -9 21
-17 42 -17 47 0 5 -4 17 -10 27 -14 24 -70 151 -70 158 0 3 -9 19 -21 35 -11
16 -18 29 -15 29 15 0 -183 336 -228 388 -11 12 -15 22 -10 22 5 0 4 4 -2 8
-6 4 -24 27 -41 52 -17 25 -39 55 -49 67 -11 12 -28 34 -39 49 -119 167 -430
478 -620 621 -17 12 -52 40 -80 61 -127 97 -396 260 -555 335 -150 71 -232
107 -243 107 -7 0 -24 6 -39 14 -14 8 -43 19 -65 26 -21 6 -47 15 -58 20 -73
30 -303 93 -460 126 -5 1 -28 5 -50 8 -22 3 -51 8 -65 11 -37 7 -119 18 -235
30 -27 3 -95 8 -149 11 -54 2 -102 7 -106 9 -4 2 -9 3 -11 0z m131 -1738 c98
-9 158 -19 230 -38 41 -11 82 -21 90 -23 67 -16 277 -99 294 -116 6 -6 18 -10
28 -10 10 0 18 -3 18 -8 0 -4 14 -13 30 -20 17 -8 64 -36 107 -64 185 -120
366 -293 473 -448 8 -12 23 -31 33 -42 9 -12 17 -25 17 -29 0 -4 6 -14 13 -21
17 -18 61 -98 108 -198 70 -146 139 -360 154 -480 1 -8 5 -35 9 -60 31 -211
21 -449 -26 -650 -11 -47 -21 -92 -23 -100 -2 -8 -4 -17 -6 -20 -1 -3 -3 -9
-4 -15 -1 -5 -5 -17 -8 -25 -3 -8 -14 -40 -25 -70 -11 -30 -30 -76 -42 -102
-11 -26 -21 -51 -21 -55 -1 -5 -10 -20 -20 -35 -10 -14 -19 -29 -19 -33 0 -7
-102 -174 -122 -200 -85 -111 -224 -258 -314 -334 -63 -53 -175 -132 -250
-177 -44 -26 -87 -54 -96 -62 -10 -8 -18 -11 -18 -6 0 5 -4 4 -8 -2 -22 -33
-293 -123 -420 -139 -26 -4 -58 -8 -72 -10 -23 -3 -71 -7 -270 -21 -156 -12
-1859 -11 -1863 0 -7 18 0 1896 7 1971 18 192 54 340 124 515 41 102 157 319
182 340 4 3 20 25 37 50 47 69 79 105 188 215 96 96 172 165 182 165 4 0 80
55 108 78 23 19 139 83 221 122 125 59 275 107 439 139 127 25 157 28 315 25
96 -2 195 -5 220 -7z"/>
<path d="M2748 2615 c-2 -1 -39 -5 -83 -9 -73 -6 -120 -12 -120 -16 0 -1 -8
-3 -19 -5 -121 -23 -295 -89 -390 -148 -45 -27 -144 -97 -171 -119 -85 -70
-265 -277 -265 -304 0 -4 -6 -15 -14 -23 -21 -24 -96 -174 -96 -193 0 -9 -4
-19 -9 -22 -7 -5 -36 -94 -34 -106 1 -3 -3 -12 -7 -20 -4 -8 -11 -32 -14 -54
-4 -21 -8 -41 -10 -45 -9 -14 -18 -114 -21 -216 -5 -222 49 -446 150 -626 19
-32 31 -59 27 -59 -4 0 -2 -4 4 -8 5 -4 26 -29 45 -57 74 -106 221 -256 315
-320 33 -22 61 -43 62 -47 2 -5 7 -8 12 -8 4 0 37 -16 72 -36 34 -20 70 -37
79 -39 9 -2 25 -8 35 -13 28 -14 66 -30 94 -38 14 -4 30 -9 35 -11 120 -36
190 -45 355 -45 146 -1 191 3 270 21 108 25 108 25 135 35 11 5 34 13 50 18
43 16 209 91 215 98 3 4 21 15 40 26 19 10 40 24 46 29 6 6 23 19 39 30 131
93 256 234 344 387 67 117 107 224 146 390 19 81 25 343 11 428 -5 25 -9 54
-11 65 -2 18 -7 37 -33 135 -21 78 -82 215 -128 288 -19 29 -34 56 -34 61 0 5
-3 11 -7 13 -5 2 -27 28 -51 60 -61 79 -210 228 -230 228 -5 0 -12 7 -16 15
-3 8 -12 15 -21 15 -8 0 -15 4 -15 8 0 16 -221 134 -295 158 -132 42 -182 55
-290 70 -37 5 -193 12 -197 9z"/>
<path d="M7175 2609 c-85 -11 -128 -18 -170 -29 -22 -6 -47 -12 -56 -14 -8 -2
-32 -11 -52 -20 -20 -8 -37 -13 -37 -11 0 4 -46 -14 -133 -54 -171 -78 -350
-227 -477 -396 -89 -119 -187 -322 -215 -446 -2 -13 -9 -44 -15 -69 -34 -152
-33 -410 2 -545 5 -22 11 -47 13 -55 15 -79 122 -320 165 -373 5 -7 36 -46 68
-87 183 -235 475 -407 803 -475 162 -33 414 -19 584 34 75 23 209 82 260 114
168 105 256 178 361 302 158 186 266 420 300 650 10 65 11 296 1 360 -13 91
-41 200 -68 261 -10 24 -17 44 -14 44 4 0 -102 207 -115 223 -5 7 -36 46 -68
87 -184 235 -473 414 -767 476 -125 26 -277 35 -370 23z"/>
</g>
</svg>
