<?xml version="1.0" encoding="UTF-8"?>
<svg width="400px" height="400px" viewBox="0 0 400 400" version="1.1" xmlns="http://www.w3.org/2000/svg" xmlns:xlink="http://www.w3.org/1999/xlink">
    <!-- Generator: Sketch 52.4 (67378) - http://www.bohemiancoding.com/sketch -->
    <title>Artboard</title>
    <desc>Created with Sketch.</desc>
    <g id="Artboard" stroke="none" stroke-width="1" fill="none" fill-rule="evenodd">
        <g id="image2vector-(3)">
            <path d="M187.625,81.532 C145.155,85.148 112.798,116.526 106.708,160 C106.488,161.565 106.387,174.791 106.323,210.188 L106.235,258.25 L150.055,258.241 C200.97,258.23 203.647,258.154 212.103,256.471 C258.791,247.181 289.826,203.221 282.74,156.414 C275.799,110.561 233.918,77.59 187.625,81.532 M204.142,125.098 C244.066,133.529 253.929,185.39 219.875,207.821 C209.447,214.69 205.477,215.306 172.375,215.199 L149.375,215.125 L149.304,192.5 C149.229,168.93 149.34,165.229 150.257,160.694 C153.948,142.447 169.079,127.758 187.125,124.904 C188.5,124.687 189.906,124.459 190.25,124.397 C192.297,124.032 201.229,124.483 204.142,125.098 M133.909,268.01 C107.89,272.077 97.151,303.693 115.399,322.5 C135.353,343.062 170.208,329.783 171.176,301.25 C171.865,280.965 153.846,264.894 133.909,268.01 M245.875,268.104 C214.393,274.195 208.702,315.974 237.515,329.477 C265.373,342.531 294.148,312.544 280.053,285.146 C273.789,272.968 258.957,265.573 245.875,268.104" id="path0" fill="#0C94F4"></path>
            <path d="M0,200 L0,400 L200,400 L400,400 L400,200 L400,0 L200,0 L0,0 L0,200 M201.924,81.515 C243.28,84.936 276.593,115.81 282.74,156.414 C289.826,203.221 258.791,247.181 212.103,256.471 C203.647,258.154 200.97,258.23 150.055,258.241 L106.235,258.25 L106.323,210.188 C106.387,174.791 106.488,161.565 106.708,160 C108.896,144.377 113.247,132.511 121.097,120.758 C138.924,94.067 170.185,78.889 201.924,81.515 M190.25,124.397 C189.906,124.459 188.5,124.687 187.125,124.904 C169.079,127.758 153.948,142.447 150.257,160.694 C149.34,165.229 149.229,168.93 149.304,192.5 L149.375,215.125 L172.375,215.199 C203.312,215.299 205.716,215.041 214.875,210.628 C251.418,193.021 248.19,139.929 209.767,126.638 C204.481,124.809 194.42,123.654 190.25,124.397 M146.449,268.599 C171.305,274.867 179.701,305.572 161.416,323.332 C142.463,341.74 110.655,330.888 106.587,304.625 C103.145,282.41 124.541,263.074 146.449,268.599 M259.375,268.718 C282.687,274.773 291.618,303.697 275.659,321.451 C255.219,344.19 217.747,329.303 218.833,298.875 C219.571,278.22 239.341,263.514 259.375,268.718" id="path1"></path>
            <rect id="Rectangle" fill-rule="nonzero" x="0" y="0" width="400" height="400"></rect>
        </g>
    </g>
</svg>