<svg id="svg" version="1.1" width="400" height="400" viewBox="0 0 400 400" xmlns="http://www.w3.org/2000/svg" xmlns:xlink="http://www.w3.org/1999/xlink" ><g id="svgg"><path id="path0" d="M187.625 81.532 C 145.155 85.148,112.798 116.526,106.708 160.000 C 106.488 161.565,106.387 174.791,106.323 210.188 L 106.235 258.250 150.055 258.241 C 200.970 258.230,203.647 258.154,212.103 256.471 C 258.791 247.181,289.826 203.221,282.740 156.414 C 275.799 110.561,233.918 77.590,187.625 81.532 M204.142 125.098 C 244.066 133.529,253.929 185.390,219.875 207.821 C 209.447 214.690,205.477 215.306,172.375 215.199 L 149.375 215.125 149.304 192.500 C 149.229 168.930,149.340 165.229,150.257 160.694 C 153.948 142.447,169.079 127.758,187.125 124.904 C 188.500 124.687,189.906 124.459,190.250 124.397 C 192.297 124.032,201.229 124.483,204.142 125.098 M133.909 268.010 C 107.890 272.077,97.151 303.693,115.399 322.500 C 135.353 343.062,170.208 329.783,171.176 301.250 C 171.865 280.965,153.846 264.894,133.909 268.010 M245.875 268.104 C 214.393 274.195,208.702 315.974,237.515 329.477 C 265.373 342.531,294.148 312.544,280.053 285.146 C 273.789 272.968,258.957 265.573,245.875 268.104 " stroke="none" fill="#fbfbfc" fill-rule="evenodd"></path><path id="path1" d="M0.000 200.000 L 0.000 400.000 200.000 400.000 L 400.000 400.000 400.000 200.000 L 400.000 0.000 200.000 0.000 L 0.000 0.000 0.000 200.000 M201.924 81.515 C 243.280 84.936,276.593 115.810,282.740 156.414 C 289.826 203.221,258.791 247.181,212.103 256.471 C 203.647 258.154,200.970 258.230,150.055 258.241 L 106.235 258.250 106.323 210.188 C 106.387 174.791,106.488 161.565,106.708 160.000 C 108.896 144.377,113.247 132.511,121.097 120.758 C 138.924 94.067,170.185 78.889,201.924 81.515 M190.250 124.397 C 189.906 124.459,188.500 124.687,187.125 124.904 C 169.079 127.758,153.948 142.447,150.257 160.694 C 149.340 165.229,149.229 168.930,149.304 192.500 L 149.375 215.125 172.375 215.199 C 203.312 215.299,205.716 215.041,214.875 210.628 C 251.418 193.021,248.190 139.929,209.767 126.638 C 204.481 124.809,194.420 123.654,190.250 124.397 M146.449 268.599 C 171.305 274.867,179.701 305.572,161.416 323.332 C 142.463 341.740,110.655 330.888,106.587 304.625 C 103.145 282.410,124.541 263.074,146.449 268.599 M259.375 268.718 C 282.687 274.773,291.618 303.697,275.659 321.451 C 255.219 344.190,217.747 329.303,218.833 298.875 C 219.571 278.220,239.341 263.514,259.375 268.718 " stroke="none" fill="#0c94f4" fill-rule="evenodd"></path></g></svg>